<svg version="1" xmlns="http://www.w3.org/2000/svg" width="533.333" height="533.333" viewBox="0 0 400.000000 400.000000"><path d="M195.9 30.5c-.3.2-3.6.7-7.4 1-26 2.3-46.5 6.1-64 12-5.5 1.8-14.7 4.8-20.5 6.6-16.2 4.9-26.3 9.7-43 20.5-24.5 15.7-32.8 24.6-35.1 37.7-1.4 8.4-1.4 17.9.1 20.7 1.6 3-1.1 2.6-4-.5-1.8-1.9-3.4-2.5-6.7-2.5-2.4 0-4.3.4-4.3 1 0 1 3.6 7.7 5.2 9.7 1.2 1.5.2 2-6.4 2.8l-5.6.7 1 3.2c1.4 4 2 4.7 4.7 4.9 1.1.1 2.1.4 2.1.8s-2.6 3.1-5.9 6.1l-5.9 5.3 2.2 1.7c1.2.9 3.7 1.9 5.5 2.1 1.8.3 3.5.8 3.9 1.1.8.9-2.9 7.4-7.2 12.2-3.5 4.1-3.7 4.7-2.6 7.3 1.1 2.8 1.5 2.9 6.8 2.9l5.7-.1-.1 5.4c-.1 5.5-1.3 20.8-2 24.4-1.3 7.4-1.2 10.5.7 16.8 1.1 3.7 1.9 8.6 1.7 10.9-.3 3.9-.5 4.2-5.4 6-5 1.9-5.2 2.1-4.8 5.6.1 2.1.5 6.8.8 10.6.3 3.8 1 7.4 1.5 8 .6.7.6 1.7.1 2.6-.5.8-.7 2.4-.5 3.5.3 1.1.7 5.1.9 9 1 14.1 4.1 23.6 10.1 30.7 1.4 1.6 2.5 3.4 2.5 3.8 0 1.6 6.2 8 10.4 10.9 5.4 3.6 44.6 20 44.6 18.6 0-.3 1.1 0 2.5.5 2.8 1.1 21.3 4.3 32 5.6 2.2.3 4.7.7 5.5.9.8.3 3.3.7 5.5 1 2.2.4 4.8.8 5.7 1.1 1 .3 3 .7 4.5 1 1.6.2 4.4.7 6.3 1 1.9.3 5.5.8 8 1 6 .6 7.3.8 8.8 1.7.7.5 1.2.3 1.2-.3s.5-.8 1-.5c.9.6 15.6 1.7 24.5 1.9 2.2.1 4.3.5 4.7 1.1.5.6.8.5.8-.4 0-1 .3-1.1 1.3-.2.8.6 1.7.7 2.1.3 1.1-1 3-.9 3.7.1.4.5 1.5.4 2.7-.2 1.5-.8 2.3-.8 2.8 0 .4.8.9.7 1.5-.2.5-.8.9-1 .9-.4s5 1 12.9 1c7.1 0 12.7-.3 12.5-.6-.1-.3.3-.6 1.1-.6s1.5.3 1.5.6 1.1.6 2.4.6c1.3 0 2.3-.2 2.1-.5-.2-.3 3.6-.6 8.3-.6 15.8-.3 22.7-.8 23.4-1.9.5-.6.8-.5.8.3 0 .7.5 1 1.1.7.5-.4 3.6-.9 6.7-1.1 12.8-.9 21.3-2.2 22.8-3.5.6-.5 1.3-.7 1.6-.4.2.2 5.1-.5 10.9-1.6 5.7-1.1 11.8-2.3 13.4-2.6 1.7-.3 3.5-.8 4-1.3.6-.4 3.1-1.1 5.8-1.4 2.6-.4 4.7-1.1 4.7-1.7 0-.5.3-.8.8-.7 1.3.4 8.2-2.3 8.2-3.3 0-.5.3-.8.8-.7 1.4.4 7.2-2.1 7.2-3.2 0-.6.4-.9.9-.5.5.3 1.2.1 1.6-.5.3-.5 1.6-1 2.9-1 1.2 0 2.6-.3 3-.8.4-.4 1.3-.7 1.9-.7.7-.1 1.1-.6 1-1.3-.2-.7 0-1.1.5-1.1 2 .3 3.2-.2 2.6-1.3-.4-.7-.3-.8.5-.4 1.4.9 6.3-4.3 9-9.4 4.2-8.2 6.8-27.6 5.1-38.7-.5-3.2-.3-4.6.8-5.5.8-.7 3.6-4.5 6.3-8.5 4.7-6.9 4.9-7.6 4.4-12-1.3-9.6-1.7-10.9-4.5-14.5-3.3-4-3.7-5.3-1.7-4.5 1 .4 1.3-.2.9-1.9-.2-1.3 0-2.4.7-2.4.5 0 .8.8.5 1.7-.5 1.5-.4 1.5.4.3.6-.8.9-1.7.6-2.1-.2-.4.3-1.2 1.1-1.9 1.5-1.3 1.2-3-.7-3-.5 0-.7.7-.4 1.6.4 1 .2 1.3-.6.8-.7-.4-.8-.3-.4.4s.2 1.2-.4 1.2c-.7 0-.9-.8-.4-2.3.7-2.4 2.4-3.8 3.6-3.1.4.3.5-.2.2-1-.3-.9-1.1-1.6-1.6-1.6-.6 0-.5-.6.2-1.5.8-1 .9-1.5.2-1.5-1.5 0-.5-2.4 3.5-8.8l3.4-5.3-2.5-8.3c-2.8-9.1-3-9.9-1.8-9.3.4.3 1.8.1 3.1-.4 2.2-.9 2.3-1.2 1.7-7.7-.3-3.7-.6-6.8-.6-6.8 0-.1-1.1-.5-2.4-.8-3.5-.9-4-3.8-1.7-9.2 2.5-5.5 2.6-6.6.6-10.4-1.3-2.4-1.3-3.4-.1-7.3l1.4-4.6-4.2-.7c-2.2-.4-4.4-.7-4.8-.6-.4.1-.6-.6-.6-1.6.2-7.2-5.8-26-14.6-45.6-.8-1.7-2.3-5.2-3.4-7.7-2.9-6.9-7.6-11.5-20.2-19.9-1.2-.8-5.6-4.1-9.8-7.2-13.4-10.1-27-15.6-50.2-20.3-.8-.2-5.3-1.2-10-2.3-7.3-1.8-12.4-2.9-16.5-3.8-.5-.1-5.3-1.1-10.5-2.2-5.2-1.2-13.5-2.8-18.5-3.6-4.9-.9-10.1-1.8-11.5-2.1-1.4-.3-4.5-.8-7-1.1-2.5-.3-4.8-.8-5.2-1-1-.6-13.4-1.4-13.9-.9zM92.3 234.7c-.7.2-1.9.2-2.5 0-.7-.3-.2-.5 1.2-.5s1.9.2 1.3.5zM122 236c0 .5-.7 1-1.6 1-.8 0-1.2-.5-.9-1 .3-.6 1-1 1.6-1 .5 0 .9.4.9 1z"/></svg>